<?xml version="1.0" encoding="UTF-8" standalone="no"?>
<!DOCTYPE svg PUBLIC "-//W3C//DTD SVG 1.1//EN" "http://www.w3.org/Graphics/SVG/1.1/DTD/svg11.dtd">
<svg width="100%" height="100%" viewBox="0 0 1920 187" version="1.1" xmlns="http://www.w3.org/2000/svg" xmlns:xlink="http://www.w3.org/1999/xlink" xml:space="preserve" xmlns:serif="http://www.serif.com/" style="fill-rule:evenodd;clip-rule:evenodd;stroke-linejoin:round;stroke-miterlimit:1.5;">
    <g transform="matrix(1,0,0,1,0,8.25342)">
        <g id="Layer2">
            <g>
                <g transform="matrix(1,0,0,1,850.6,12.3521)">
                    <g transform="matrix(14,0,0,14,299.655,6.23776)">
                        <path d="M0.26,-0.53C0.318,-0.53 0.368,-0.506 0.41,-0.458L0.41,-0.519L0.547,-0.519L0.547,-0L0.42,-0L0.42,-0.076C0.398,-0.047 0.373,-0.024 0.345,-0.01C0.316,0.004 0.287,0.012 0.258,0.012C0.228,0.012 0.2,0.006 0.174,-0.007C0.147,-0.019 0.124,-0.037 0.105,-0.06C0.085,-0.084 0.069,-0.112 0.058,-0.146C0.047,-0.18 0.041,-0.218 0.041,-0.261C0.041,-0.306 0.047,-0.344 0.058,-0.378C0.069,-0.411 0.084,-0.44 0.104,-0.462C0.124,-0.485 0.147,-0.502 0.173,-0.513C0.2,-0.525 0.229,-0.53 0.26,-0.53ZM0.181,-0.271C0.181,-0.238 0.184,-0.211 0.19,-0.188C0.196,-0.166 0.204,-0.148 0.214,-0.135C0.225,-0.121 0.237,-0.111 0.251,-0.105C0.265,-0.1 0.28,-0.097 0.297,-0.097C0.313,-0.097 0.327,-0.1 0.341,-0.107C0.355,-0.113 0.367,-0.123 0.377,-0.137C0.387,-0.15 0.396,-0.167 0.402,-0.187C0.408,-0.207 0.411,-0.231 0.411,-0.257C0.411,-0.288 0.408,-0.313 0.402,-0.335C0.396,-0.356 0.388,-0.373 0.378,-0.387C0.367,-0.4 0.355,-0.41 0.341,-0.416C0.327,-0.422 0.312,-0.425 0.296,-0.425C0.28,-0.425 0.265,-0.422 0.251,-0.416C0.237,-0.409 0.225,-0.399 0.214,-0.386C0.204,-0.374 0.196,-0.358 0.19,-0.338C0.184,-0.319 0.181,-0.296 0.181,-0.271Z" style="fill:rgb(140,140,140);fill-rule:nonzero;"/>
                    </g>
                    <text x="224.986px" y="6.238px" style="font-family:'Arial-BoldMT', 'Arial', sans-serif;font-weight:700;font-size:14px;fill:rgb(140,140,140);">Lower Midr<tspan x="308.207px " y="6.238px ">n</tspan>ge</text>
                </g>
                <g transform="matrix(1,0,0,1,1068.94,12.3521)">
                    <g transform="matrix(14,0,0,14,254.538,6.23776)">
                        <path d="M0.26,-0.53C0.318,-0.53 0.368,-0.506 0.41,-0.458L0.41,-0.519L0.547,-0.519L0.547,-0L0.42,-0L0.42,-0.076C0.398,-0.047 0.373,-0.024 0.345,-0.01C0.316,0.004 0.287,0.012 0.258,0.012C0.228,0.012 0.2,0.006 0.174,-0.007C0.147,-0.019 0.124,-0.037 0.105,-0.06C0.085,-0.084 0.069,-0.112 0.058,-0.146C0.047,-0.18 0.041,-0.218 0.041,-0.261C0.041,-0.306 0.047,-0.344 0.058,-0.378C0.069,-0.411 0.084,-0.44 0.104,-0.462C0.124,-0.485 0.147,-0.502 0.173,-0.513C0.2,-0.525 0.229,-0.53 0.26,-0.53ZM0.181,-0.271C0.181,-0.238 0.184,-0.211 0.19,-0.188C0.196,-0.166 0.204,-0.148 0.214,-0.135C0.225,-0.121 0.237,-0.111 0.251,-0.105C0.265,-0.1 0.28,-0.097 0.297,-0.097C0.313,-0.097 0.327,-0.1 0.341,-0.107C0.355,-0.113 0.367,-0.123 0.377,-0.137C0.387,-0.15 0.396,-0.167 0.402,-0.187C0.408,-0.207 0.411,-0.231 0.411,-0.257C0.411,-0.288 0.408,-0.313 0.402,-0.335C0.396,-0.356 0.388,-0.373 0.378,-0.387C0.367,-0.4 0.355,-0.41 0.341,-0.416C0.327,-0.422 0.312,-0.425 0.296,-0.425C0.28,-0.425 0.265,-0.422 0.251,-0.416C0.237,-0.409 0.225,-0.399 0.214,-0.386C0.204,-0.374 0.196,-0.358 0.19,-0.338C0.184,-0.319 0.181,-0.296 0.181,-0.271Z" style="fill:rgb(140,140,140);fill-rule:nonzero;"/>
                    </g>
                    <text x="224.986px" y="6.238px" style="font-family:'Arial-BoldMT', 'Arial', sans-serif;font-weight:700;font-size:14px;fill:rgb(140,140,140);">Midr<tspan x="263.09px " y="6.238px ">n</tspan>ge</text>
                </g>
                <g transform="matrix(1,0,0,1,1248.47,12.3521)">
                    <g transform="matrix(14,0,0,14,298.876,6.23776)">
                        <path d="M0.26,-0.53C0.318,-0.53 0.368,-0.506 0.41,-0.458L0.41,-0.519L0.547,-0.519L0.547,-0L0.42,-0L0.42,-0.076C0.398,-0.047 0.373,-0.024 0.345,-0.01C0.316,0.004 0.287,0.012 0.258,0.012C0.228,0.012 0.2,0.006 0.174,-0.007C0.147,-0.019 0.124,-0.037 0.105,-0.06C0.085,-0.084 0.069,-0.112 0.058,-0.146C0.047,-0.18 0.041,-0.218 0.041,-0.261C0.041,-0.306 0.047,-0.344 0.058,-0.378C0.069,-0.411 0.084,-0.44 0.104,-0.462C0.124,-0.485 0.147,-0.502 0.173,-0.513C0.2,-0.525 0.229,-0.53 0.26,-0.53ZM0.181,-0.271C0.181,-0.238 0.184,-0.211 0.19,-0.188C0.196,-0.166 0.204,-0.148 0.214,-0.135C0.225,-0.121 0.237,-0.111 0.251,-0.105C0.265,-0.1 0.28,-0.097 0.297,-0.097C0.313,-0.097 0.327,-0.1 0.341,-0.107C0.355,-0.113 0.367,-0.123 0.377,-0.137C0.387,-0.15 0.396,-0.167 0.402,-0.187C0.408,-0.207 0.411,-0.231 0.411,-0.257C0.411,-0.288 0.408,-0.313 0.402,-0.335C0.396,-0.356 0.388,-0.373 0.378,-0.387C0.367,-0.4 0.355,-0.41 0.341,-0.416C0.327,-0.422 0.312,-0.425 0.296,-0.425C0.28,-0.425 0.265,-0.422 0.251,-0.416C0.237,-0.409 0.225,-0.399 0.214,-0.386C0.204,-0.374 0.196,-0.358 0.19,-0.338C0.184,-0.319 0.181,-0.296 0.181,-0.271Z" style="fill:rgb(140,140,140);fill-rule:nonzero;"/>
                    </g>
                    <text x="224.986px" y="6.238px" style="font-family:'Arial-BoldMT', 'Arial', sans-serif;font-weight:700;font-size:14px;fill:rgb(140,140,140);">Upper Midr<tspan x="307.428px " y="6.238px ">n</tspan>ge</text>
                </g>
                <g transform="matrix(1,0,0,1,1378.38,12.3521)">
                    <text x="224.986px" y="6.238px" style="font-family:'Arial-BoldMT', 'Arial', sans-serif;font-weight:700;font-size:14px;fill:rgb(140,140,140);">Presence</text>
                </g>
                <g transform="matrix(1,0,0,1,1533.91,12.3521)">
                    <g transform="matrix(14,0,0,14,244.435,6.23776)">
                        <path d="M0.201,-0.716L0.201,-0.222C0.201,-0.2 0.201,-0.182 0.202,-0.168C0.202,-0.154 0.203,-0.145 0.205,-0.141C0.208,-0.133 0.212,-0.126 0.218,-0.122C0.224,-0.117 0.235,-0.114 0.25,-0.114C0.255,-0.114 0.261,-0.115 0.268,-0.115C0.274,-0.116 0.281,-0.117 0.289,-0.119L0.308,-0C0.274,0.008 0.245,0.013 0.22,0.013C0.182,0.013 0.151,0.005 0.126,-0.01C0.113,-0.018 0.103,-0.027 0.095,-0.036C0.087,-0.046 0.081,-0.058 0.076,-0.073C0.071,-0.089 0.068,-0.107 0.066,-0.13C0.064,-0.152 0.063,-0.18 0.063,-0.214L0.063,-0.716L0.201,-0.716Z" style="fill:rgb(140,140,140);fill-rule:nonzero;"/>
                    </g>
                    <g transform="matrix(14,0,0,14,248.748,6.23776)">
                        <path d="M0.201,-0.716L0.201,-0.222C0.201,-0.2 0.201,-0.182 0.202,-0.168C0.202,-0.154 0.203,-0.145 0.205,-0.141C0.208,-0.133 0.212,-0.126 0.218,-0.122C0.224,-0.117 0.235,-0.114 0.25,-0.114C0.255,-0.114 0.261,-0.115 0.268,-0.115C0.274,-0.116 0.281,-0.117 0.289,-0.119L0.308,-0C0.274,0.008 0.245,0.013 0.22,0.013C0.182,0.013 0.151,0.005 0.126,-0.01C0.113,-0.018 0.103,-0.027 0.095,-0.036C0.087,-0.046 0.081,-0.058 0.076,-0.073C0.071,-0.089 0.068,-0.107 0.066,-0.13C0.064,-0.152 0.063,-0.18 0.063,-0.214L0.063,-0.716L0.201,-0.716Z" style="fill:rgb(140,140,140);fill-rule:nonzero;"/>
                    </g>
                    <g transform="matrix(14,0,0,14,256.951,6.23776)">
                        <path d="M0.26,-0.53C0.318,-0.53 0.368,-0.506 0.41,-0.458L0.41,-0.519L0.547,-0.519L0.547,-0L0.42,-0L0.42,-0.076C0.398,-0.047 0.373,-0.024 0.345,-0.01C0.316,0.004 0.287,0.012 0.258,0.012C0.228,0.012 0.2,0.006 0.174,-0.007C0.147,-0.019 0.124,-0.037 0.105,-0.06C0.085,-0.084 0.069,-0.112 0.058,-0.146C0.047,-0.18 0.041,-0.218 0.041,-0.261C0.041,-0.306 0.047,-0.344 0.058,-0.378C0.069,-0.411 0.084,-0.44 0.104,-0.462C0.124,-0.485 0.147,-0.502 0.173,-0.513C0.2,-0.525 0.229,-0.53 0.26,-0.53ZM0.181,-0.271C0.181,-0.238 0.184,-0.211 0.19,-0.188C0.196,-0.166 0.204,-0.148 0.214,-0.135C0.225,-0.121 0.237,-0.111 0.251,-0.105C0.265,-0.1 0.28,-0.097 0.297,-0.097C0.313,-0.097 0.327,-0.1 0.341,-0.107C0.355,-0.113 0.367,-0.123 0.377,-0.137C0.387,-0.15 0.396,-0.167 0.402,-0.187C0.408,-0.207 0.411,-0.231 0.411,-0.257C0.411,-0.288 0.408,-0.313 0.402,-0.335C0.396,-0.356 0.388,-0.373 0.378,-0.387C0.367,-0.4 0.355,-0.41 0.341,-0.416C0.327,-0.422 0.312,-0.425 0.296,-0.425C0.28,-0.425 0.265,-0.422 0.251,-0.416C0.237,-0.409 0.225,-0.399 0.214,-0.386C0.204,-0.374 0.196,-0.358 0.19,-0.338C0.184,-0.319 0.181,-0.296 0.181,-0.271Z" style="fill:rgb(140,140,140);fill-rule:nonzero;"/>
                    </g>
                    <text x="224.986px" y="6.238px" style="font-family:'Arial-BoldMT', 'Arial', sans-serif;font-weight:700;font-size:14px;fill:rgb(140,140,140);">Bri<tspan x="253.062px 265.503px " y="6.238px 6.238px ">in</tspan>ce</text>
                </g>
                <g transform="matrix(1,0,0,1,407.382,12.3521)">
                    <g transform="matrix(14,0,0,14,265.428,6.23776)">
                        <path d="M0.26,-0.53C0.318,-0.53 0.368,-0.506 0.41,-0.458L0.41,-0.519L0.547,-0.519L0.547,-0L0.42,-0L0.42,-0.076C0.398,-0.047 0.373,-0.024 0.345,-0.01C0.316,0.004 0.287,0.012 0.258,0.012C0.228,0.012 0.2,0.006 0.174,-0.007C0.147,-0.019 0.124,-0.037 0.105,-0.06C0.085,-0.084 0.069,-0.112 0.058,-0.146C0.047,-0.18 0.041,-0.218 0.041,-0.261C0.041,-0.306 0.047,-0.344 0.058,-0.378C0.069,-0.411 0.084,-0.44 0.104,-0.462C0.124,-0.485 0.147,-0.502 0.173,-0.513C0.2,-0.525 0.229,-0.53 0.26,-0.53ZM0.181,-0.271C0.181,-0.238 0.184,-0.211 0.19,-0.188C0.196,-0.166 0.204,-0.148 0.214,-0.135C0.225,-0.121 0.237,-0.111 0.251,-0.105C0.265,-0.1 0.28,-0.097 0.297,-0.097C0.313,-0.097 0.327,-0.1 0.341,-0.107C0.355,-0.113 0.367,-0.123 0.377,-0.137C0.387,-0.15 0.396,-0.167 0.402,-0.187C0.408,-0.207 0.411,-0.231 0.411,-0.257C0.411,-0.288 0.408,-0.313 0.402,-0.335C0.396,-0.356 0.388,-0.373 0.378,-0.387C0.367,-0.4 0.355,-0.41 0.341,-0.416C0.327,-0.422 0.312,-0.425 0.296,-0.425C0.28,-0.425 0.265,-0.422 0.251,-0.416C0.237,-0.409 0.225,-0.399 0.214,-0.386C0.204,-0.374 0.196,-0.358 0.19,-0.338C0.184,-0.319 0.181,-0.296 0.181,-0.271Z" style="fill:rgb(140,140,140);fill-rule:nonzero;"/>
                    </g>
                    <text x="224.986px" y="6.238px" style="font-family:'Arial-BoldMT', 'Arial', sans-serif;font-weight:700;font-size:14px;fill:rgb(140,140,140);">Sub B<tspan x="273.98px " y="6.238px ">s</tspan>s</text>
                </g>
                <g transform="matrix(1,0,0,1,683.915,12.3521)">
                    <g transform="matrix(14,0,0,14,235.097,6.23776)">
                        <path d="M0.26,-0.53C0.318,-0.53 0.368,-0.506 0.41,-0.458L0.41,-0.519L0.547,-0.519L0.547,-0L0.42,-0L0.42,-0.076C0.398,-0.047 0.373,-0.024 0.345,-0.01C0.316,0.004 0.287,0.012 0.258,0.012C0.228,0.012 0.2,0.006 0.174,-0.007C0.147,-0.019 0.124,-0.037 0.105,-0.06C0.085,-0.084 0.069,-0.112 0.058,-0.146C0.047,-0.18 0.041,-0.218 0.041,-0.261C0.041,-0.306 0.047,-0.344 0.058,-0.378C0.069,-0.411 0.084,-0.44 0.104,-0.462C0.124,-0.485 0.147,-0.502 0.173,-0.513C0.2,-0.525 0.229,-0.53 0.26,-0.53ZM0.181,-0.271C0.181,-0.238 0.184,-0.211 0.19,-0.188C0.196,-0.166 0.204,-0.148 0.214,-0.135C0.225,-0.121 0.237,-0.111 0.251,-0.105C0.265,-0.1 0.28,-0.097 0.297,-0.097C0.313,-0.097 0.327,-0.1 0.341,-0.107C0.355,-0.113 0.367,-0.123 0.377,-0.137C0.387,-0.15 0.396,-0.167 0.402,-0.187C0.408,-0.207 0.411,-0.231 0.411,-0.257C0.411,-0.288 0.408,-0.313 0.402,-0.335C0.396,-0.356 0.388,-0.373 0.378,-0.387C0.367,-0.4 0.355,-0.41 0.341,-0.416C0.327,-0.422 0.312,-0.425 0.296,-0.425C0.28,-0.425 0.265,-0.422 0.251,-0.416C0.237,-0.409 0.225,-0.399 0.214,-0.386C0.204,-0.374 0.196,-0.358 0.19,-0.338C0.184,-0.319 0.181,-0.296 0.181,-0.271Z" style="fill:rgb(140,140,140);fill-rule:nonzero;"/>
                    </g>
                    <text x="224.986px" y="6.238px" style="font-family:'Arial-BoldMT', 'Arial', sans-serif;font-weight:700;font-size:14px;fill:rgb(140,140,140);">B<tspan x="243.649px " y="6.238px ">s</tspan>s</text>
                </g>
            </g>
        </g>
    </g>
    <g transform="matrix(1,0,0,1.17543,253.667,7)">
        <path d="M540,153.136L540,0" style="fill:none;stroke:url(#_Linear1);stroke-width:1.37px;stroke-dasharray:5.5,8.25,5.5,8.25;"/>
    </g>
    <g transform="matrix(1,0,0,1.17543,0,7)">
        <path d="M540,153.136L540,0" style="fill:none;stroke:url(#_Linear2);stroke-width:1.37px;stroke-dasharray:5.5,8.25,5.5,8.25;"/>
    </g>
    <g transform="matrix(1,0,0,1.17543,1365.45,7)">
        <path d="M540,153.136L540,0" style="fill:none;stroke:url(#_Linear3);stroke-width:1.37px;stroke-dasharray:5.5,8.25,5.5,8.25;"/>
    </g>
    <g transform="matrix(1,0,0,1.17543,1057.43,7)">
        <path d="M540,153.136L540,0" style="fill:none;stroke:url(#_Linear4);stroke-width:1.37px;stroke-dasharray:5.5,8.25,5.5,8.25;"/>
    </g>
    <g transform="matrix(1,0,0,1.17543,925.099,7)">
        <path d="M540,153.136L540,0" style="fill:none;stroke:url(#_Linear5);stroke-width:1.37px;stroke-dasharray:5.5,8.25,5.5,8.25;"/>
    </g>
    <g transform="matrix(1,0,0,1.17543,1136.29,7)">
        <path d="M540,153.136L540,0" style="fill:none;stroke:url(#_Linear6);stroke-width:1.37px;stroke-dasharray:5.5,8.25,5.5,8.25;"/>
    </g>
    <g transform="matrix(1,0,0,1.17543,525.988,7)">
        <path d="M540,153.136L540,0" style="fill:none;stroke:url(#_Linear7);stroke-width:1.37px;stroke-dasharray:5.5,8.25,5.5,8.25;"/>
    </g>
    <g transform="matrix(1,0,0,1.17543,660,7)">
        <path d="M540,153.136L540,0" style="fill:none;stroke:url(#_Linear8);stroke-width:1.37px;stroke-dasharray:5.5,8.25,5.5,8.25;"/>
    </g>
    <defs>
        <linearGradient id="_Linear1" x1="0" y1="0" x2="1" y2="0" gradientUnits="userSpaceOnUse" gradientTransform="matrix(1.16341e-14,153.136,-190,9.37687e-15,946.333,-8.05979)"><stop offset="0" style="stop-color:rgb(140,140,140);stop-opacity:1"/><stop offset="1" style="stop-color:rgb(140,140,140);stop-opacity:0"/></linearGradient>
        <linearGradient id="_Linear2" x1="0" y1="0" x2="1" y2="0" gradientUnits="userSpaceOnUse" gradientTransform="matrix(1.16341e-14,153.136,-190,9.37687e-15,1200,-8.05979)"><stop offset="0" style="stop-color:rgb(140,140,140);stop-opacity:1"/><stop offset="1" style="stop-color:rgb(140,140,140);stop-opacity:0"/></linearGradient>
        <linearGradient id="_Linear3" x1="0" y1="0" x2="1" y2="0" gradientUnits="userSpaceOnUse" gradientTransform="matrix(1.16341e-14,153.136,-190,9.37687e-15,-165.452,-8.05979)"><stop offset="0" style="stop-color:rgb(140,140,140);stop-opacity:1"/><stop offset="1" style="stop-color:rgb(140,140,140);stop-opacity:0"/></linearGradient>
        <linearGradient id="_Linear4" x1="0" y1="0" x2="1" y2="0" gradientUnits="userSpaceOnUse" gradientTransform="matrix(1.16341e-14,153.136,-190,9.37687e-15,142.567,-8.05979)"><stop offset="0" style="stop-color:rgb(153,153,153);stop-opacity:1"/><stop offset="1" style="stop-color:rgb(153,153,153);stop-opacity:0"/></linearGradient>
        <linearGradient id="_Linear5" x1="0" y1="0" x2="1" y2="0" gradientUnits="userSpaceOnUse" gradientTransform="matrix(1.16341e-14,153.136,-190,9.37687e-15,274.901,-8.05979)"><stop offset="0" style="stop-color:rgb(140,140,140);stop-opacity:1"/><stop offset="1" style="stop-color:rgb(140,140,140);stop-opacity:0"/></linearGradient>
        <linearGradient id="_Linear6" x1="0" y1="0" x2="1" y2="0" gradientUnits="userSpaceOnUse" gradientTransform="matrix(1.16341e-14,153.136,-190,9.37687e-15,63.7118,-8.05979)"><stop offset="0" style="stop-color:rgb(140,140,140);stop-opacity:1"/><stop offset="1" style="stop-color:rgb(140,140,140);stop-opacity:0"/></linearGradient>
        <linearGradient id="_Linear7" x1="0" y1="0" x2="1" y2="0" gradientUnits="userSpaceOnUse" gradientTransform="matrix(1.16341e-14,153.136,-190,9.37687e-15,674.012,-8.05979)"><stop offset="0" style="stop-color:rgb(140,140,140);stop-opacity:1"/><stop offset="1" style="stop-color:rgb(140,140,140);stop-opacity:0"/></linearGradient>
        <linearGradient id="_Linear8" x1="0" y1="0" x2="1" y2="0" gradientUnits="userSpaceOnUse" gradientTransform="matrix(1.16341e-14,153.136,-190,9.37687e-15,540,-8.05979)"><stop offset="0" style="stop-color:rgb(140,140,140);stop-opacity:1"/><stop offset="1" style="stop-color:rgb(140,140,140);stop-opacity:0"/></linearGradient>
    </defs>
</svg>
